<?xml version="1.0" encoding="UTF-8"?>
<svg xmlns="http://www.w3.org/2000/svg" xmlns:xlink="http://www.w3.org/1999/xlink" width="42pt" height="42pt" viewBox="0 0 42 42" version="1.1">
<defs>
<radialGradient id="radial0" gradientUnits="userSpaceOnUse" cx="158.429" cy="578.088" fx="158.429" fy="578.088" r="65" gradientTransform="matrix(0,-0.63063,0.586695,0,-327.853909,144.774)">
<stop offset="0" style="stop-color:rgb(100%,86.666667%,33.333333%);stop-opacity:1;"/>
<stop offset="0.1" style="stop-color:rgb(100%,86.666667%,33.333333%);stop-opacity:1;"/>
<stop offset="0.5" style="stop-color:rgb(100%,32.941176%,24.313725%);stop-opacity:1;"/>
<stop offset="1" style="stop-color:rgb(78.431373%,21.568627%,67.058824%);stop-opacity:1;"/>
</radialGradient>
<radialGradient id="radial1" gradientUnits="userSpaceOnUse" cx="147.694" cy="473.455" fx="147.694" fy="473.455" r="65" gradientTransform="matrix(0.0553445,0.276411,-1.139664,0.228194,524.793818,-145.565955)">
<stop offset="0" style="stop-color:rgb(21.568627%,44.313725%,78.431373%);stop-opacity:1;"/>
<stop offset="0.128" style="stop-color:rgb(21.568627%,44.313725%,78.431373%);stop-opacity:1;"/>
<stop offset="1" style="stop-color:rgb(40%,0%,100%);stop-opacity:0;"/>
</radialGradient>
</defs>
<g id="surface1">
<path style=" stroke:none;fill-rule:nonzero;fill:url(#radial0);" d="M 21.011719 0.316406 C 12.375 0.316406 9.847656 0.328125 9.359375 0.367188 C 7.585938 0.515625 6.484375 0.792969 5.28125 1.390625 C 4.355469 1.851562 3.625 2.386719 2.90625 3.132812 C 1.59375 4.496094 0.796875 6.171875 0.507812 8.164062 C 0.367188 9.128906 0.328125 9.328125 0.320312 14.269531 C 0.316406 15.914062 0.320312 18.082031 0.320312 20.988281 C 0.320312 29.621094 0.328125 32.140625 0.371094 32.632812 C 0.515625 34.355469 0.785156 35.441406 1.355469 36.628906 C 2.453125 38.902344 4.542969 40.605469 7.003906 41.242188 C 7.859375 41.460938 8.800781 41.582031 10.007812 41.640625 C 10.519531 41.664062 15.742188 41.679688 20.964844 41.679688 C 26.191406 41.679688 31.414062 41.671875 31.914062 41.648438 C 33.316406 41.582031 34.128906 41.472656 35.027344 41.238281 C 37.503906 40.601562 39.558594 38.917969 40.675781 36.617188 C 41.238281 35.457031 41.519531 34.332031 41.648438 32.695312 C 41.679688 32.339844 41.691406 26.660156 41.691406 20.984375 C 41.691406 15.308594 41.675781 9.636719 41.648438 9.28125 C 41.519531 7.621094 41.234375 6.503906 40.652344 5.324219 C 40.179688 4.359375 39.648438 3.636719 38.882812 2.898438 C 37.515625 1.589844 35.839844 0.796875 33.847656 0.507812 C 32.878906 0.367188 32.6875 0.328125 27.742188 0.316406 Z M 21.011719 0.316406 "/>
<path style=" stroke:none;fill-rule:nonzero;fill:url(#radial1);" d="M 21.011719 0.316406 C 12.375 0.316406 9.847656 0.328125 9.359375 0.367188 C 7.585938 0.515625 6.484375 0.792969 5.28125 1.390625 C 4.355469 1.851562 3.625 2.386719 2.90625 3.132812 C 1.59375 4.496094 0.796875 6.171875 0.507812 8.164062 C 0.367188 9.128906 0.328125 9.328125 0.320312 14.269531 C 0.316406 15.914062 0.320312 18.082031 0.320312 20.988281 C 0.320312 29.621094 0.328125 32.140625 0.371094 32.632812 C 0.515625 34.355469 0.785156 35.441406 1.355469 36.628906 C 2.453125 38.902344 4.542969 40.605469 7.003906 41.242188 C 7.859375 41.460938 8.800781 41.582031 10.007812 41.640625 C 10.519531 41.664062 15.742188 41.679688 20.964844 41.679688 C 26.191406 41.679688 31.414062 41.671875 31.914062 41.648438 C 33.316406 41.582031 34.128906 41.472656 35.027344 41.238281 C 37.503906 40.601562 39.558594 38.917969 40.675781 36.617188 C 41.238281 35.457031 41.519531 34.332031 41.648438 32.695312 C 41.679688 32.339844 41.691406 26.660156 41.691406 20.984375 C 41.691406 15.308594 41.675781 9.636719 41.648438 9.28125 C 41.519531 7.621094 41.234375 6.503906 40.652344 5.324219 C 40.179688 4.359375 39.648438 3.636719 38.882812 2.898438 C 37.515625 1.589844 35.839844 0.796875 33.847656 0.507812 C 32.878906 0.367188 32.6875 0.328125 27.742188 0.316406 Z M 21.011719 0.316406 "/>
<path style=" stroke:none;fill-rule:nonzero;fill:rgb(100%,100%,100%);fill-opacity:1;" d="M 21 5.726562 C 16.851562 5.726562 16.332031 5.746094 14.703125 5.820312 C 13.078125 5.894531 11.96875 6.152344 10.996094 6.527344 C 9.992188 6.917969 9.140625 7.441406 8.292969 8.289062 C 7.441406 9.140625 6.921875 9.992188 6.527344 10.996094 C 6.148438 11.96875 5.890625 13.078125 5.820312 14.703125 C 5.746094 16.332031 5.726562 16.851562 5.726562 21 C 5.726562 25.148438 5.746094 25.667969 5.820312 27.296875 C 5.894531 28.921875 6.152344 30.03125 6.527344 31.003906 C 6.917969 32.007812 7.441406 32.859375 8.289062 33.707031 C 9.140625 34.558594 9.992188 35.082031 10.996094 35.472656 C 11.96875 35.847656 13.078125 36.105469 14.703125 36.179688 C 16.332031 36.253906 16.851562 36.273438 21 36.273438 C 25.148438 36.273438 25.667969 36.253906 27.296875 36.179688 C 28.921875 36.105469 30.03125 35.847656 31.003906 35.472656 C 32.007812 35.082031 32.859375 34.558594 33.707031 33.707031 C 34.558594 32.859375 35.078125 32.007812 35.46875 31.003906 C 35.847656 30.03125 36.105469 28.921875 36.179688 27.296875 C 36.253906 25.667969 36.273438 25.148438 36.273438 21 C 36.273438 16.851562 36.253906 16.332031 36.179688 14.703125 C 36.105469 13.078125 35.847656 11.96875 35.46875 10.996094 C 35.078125 9.992188 34.558594 9.140625 33.707031 8.289062 C 32.859375 7.441406 32.007812 6.917969 31.003906 6.527344 C 30.03125 6.152344 28.917969 5.894531 27.292969 5.820312 C 25.664062 5.746094 25.144531 5.726562 20.996094 5.726562 Z M 19.632812 8.480469 C 20.039062 8.480469 20.492188 8.480469 21 8.480469 C 25.078125 8.480469 25.5625 8.496094 27.171875 8.566406 C 28.660156 8.636719 29.46875 8.882812 30.007812 9.09375 C 30.722656 9.371094 31.230469 9.699219 31.761719 10.234375 C 32.296875 10.769531 32.628906 11.277344 32.90625 11.992188 C 33.117188 12.53125 33.363281 13.335938 33.433594 14.828125 C 33.503906 16.4375 33.519531 16.921875 33.519531 20.996094 C 33.519531 25.074219 33.503906 25.554688 33.433594 27.167969 C 33.363281 28.65625 33.117188 29.464844 32.90625 30 C 32.628906 30.714844 32.296875 31.222656 31.761719 31.753906 C 31.230469 32.289062 30.722656 32.621094 30.007812 32.898438 C 29.46875 33.109375 28.660156 33.355469 27.171875 33.425781 C 25.5625 33.496094 25.078125 33.511719 21 33.511719 C 16.921875 33.511719 16.441406 33.496094 14.828125 33.425781 C 13.339844 33.355469 12.53125 33.105469 11.992188 32.898438 C 11.28125 32.621094 10.773438 32.289062 10.238281 31.753906 C 9.703125 31.21875 9.371094 30.710938 9.09375 30 C 8.886719 29.460938 8.636719 28.652344 8.570312 27.164062 C 8.496094 25.554688 8.480469 25.070312 8.480469 20.992188 C 8.480469 16.914062 8.496094 16.433594 8.570312 14.824219 C 8.636719 13.335938 8.886719 12.527344 9.09375 11.988281 C 9.371094 11.273438 9.703125 10.765625 10.238281 10.230469 C 10.773438 9.695312 11.28125 9.367188 11.992188 9.089844 C 12.53125 8.878906 13.339844 8.628906 14.828125 8.5625 C 16.238281 8.496094 16.785156 8.480469 19.632812 8.476562 Z M 29.152344 11.015625 C 28.140625 11.015625 27.320312 11.835938 27.320312 12.847656 C 27.320312 13.859375 28.140625 14.679688 29.152344 14.679688 C 30.164062 14.679688 30.988281 13.859375 30.988281 12.847656 C 30.988281 11.835938 30.164062 11.015625 29.152344 11.015625 Z M 21 13.15625 C 16.667969 13.15625 13.15625 16.667969 13.15625 21 C 13.15625 25.332031 16.667969 28.839844 21 28.839844 C 25.332031 28.839844 28.84375 25.332031 28.84375 21 C 28.84375 16.667969 25.332031 13.15625 21 13.15625 Z M 21 15.910156 C 23.8125 15.910156 26.09375 18.1875 26.09375 21 C 26.09375 23.8125 23.8125 26.089844 21 26.089844 C 18.191406 26.089844 15.910156 23.8125 15.910156 21 C 15.910156 18.1875 18.191406 15.910156 21 15.910156 Z M 21 15.910156 "/>
</g>
</svg>
