<?xml version="1.0" encoding="utf-8"?>
<!-- Generator: Adobe Illustrator 22.1.0, SVG Export Plug-In . SVG Version: 6.00 Build 0)  -->
<svg version="1.1" id="Layer_1" xmlns="http://www.w3.org/2000/svg" xmlns:xlink="http://www.w3.org/1999/xlink" x="0px" y="0px"
	 viewBox="0 0 283.5 283.5" style="enable-background:new 0 0 283.5 283.5;" xml:space="preserve">
<style type="text/css">
	.st0{fill:#FFFFFF;}
	.st1{font-family:'Arial-BoldMT';}
	.st2{font-size:86.0918px;}
	.st3{fill:#125296;}
	.st4{fill:#8496B9;}
</style>
<text transform="matrix(1 0 0 1 207 261.0889)" class="st0 st1 st2">T</text>
<g>
	<rect x="4.7" y="4.7" class="st3" width="274.7" height="274.7"/>
	<path class="st4" d="M274.3,9.7v264.7H9.7V9.7H274.3 M284.3-0.3H-0.3v284.7h284.7V-0.3L284.3-0.3z"/>
</g>
<g>
	<path class="st0" d="M116.6,180.1c-1-14.6-2-28.9-3-43.1c-0.5-7.6-1-15.3-1.7-22.9c-0.2-2.3-1.3-4.5-1.4-6.7
		c-0.4-6.6,4.2-12.5,10.3-13.8c5.9-1.3,12.3,2.1,14.8,8c2.5,5.9,0.5,13-5,16.5c-1.6,1-3.4,1.7-5.6,2.7c0.4,8.3,0.9,17.1,1.4,26
		c8.5,0,16.6,0,24.8,0c2.8,0,6.5-0.7,8.1,0.8c1.4,1.3,0.5,5.1,0.5,7.8c0,1.3,0,2.6,0,4.1c-10.8,0-21.2,0-32.1,0
		c0.2,2.8,0.4,5.4,0.6,8c5.9,0,11.6,0,17.4,0c8,0,15.9,0,23.9-0.2c2.3-0.1,3.3,0.8,4.2,2.9c5.8,13.9,11.7,27.8,17.7,41.9
		c4.7-1.7,9.3-3.4,14.3-5.2c1.3,3.2,2.6,6.4,4.1,9.9c-8.6,3.5-17,6.9-25.9,10.5c-6.6-15.8-13.1-31.4-19.7-47.2
		C148.5,180.1,132.8,180.1,116.6,180.1z"/>
	<path class="st0" d="M110,149.1c0.4,4.7,0.9,9,1.1,13.3c0,0.8-0.6,1.9-1.3,2.4c-10,7.8-15,18-14.6,30.6
		c0.7,19.2,16.6,34.4,35.4,33.9c14.8-0.4,30.1-11.5,33.3-29.7c0.1-0.3,0.1-0.6,0.4-1.5c0.7,1.4,1.3,2.2,1.7,3.1
		c2,4.3,4.1,8.5,6,12.9c0.4,1,0.5,2.6,0,3.5c-10.2,17.3-25.3,26.6-45.4,25.3c-19-1.3-32.5-11.6-40.4-28.8
		c-10.6-23-1.3-50.9,20.7-63.3C107.8,150.2,108.7,149.7,110,149.1z"/>
</g>
<g>
	<path class="st0" d="M74.9-138l-12.3-51.5h10.7l7.8,35.4l9.4-35.4h12.4l9,36l7.9-36h10.5L117.7-138h-11l-10.3-38.5L86.2-138H74.9z"
		/>
	<path class="st0" d="M168.5-156.9l10.1,3.2c-1.5,5.6-4.1,9.8-7.7,12.5c-3.6,2.7-8.2,4.1-13.7,4.1c-6.8,0-12.5-2.3-16.9-7
		c-4.4-4.7-6.6-11.1-6.6-19.2c0-8.6,2.2-15.2,6.6-20c4.4-4.7,10.3-7.1,17.5-7.1c6.3,0,11.4,1.9,15.4,5.6c2.3,2.2,4.1,5.4,5.3,9.5
		l-10.3,2.5c-0.6-2.7-1.9-4.8-3.8-6.3s-4.3-2.3-7-2.3c-3.8,0-6.9,1.4-9.3,4.1s-3.6,7.2-3.6,13.3c0,6.5,1.2,11.2,3.5,13.9
		c2.3,2.8,5.4,4.1,9.1,4.1c2.8,0,5.1-0.9,7.1-2.6S167.6-153.2,168.5-156.9z"/>
</g>
<g>
	<path class="st0" d="M296.2-132v-42.8h-15.3v-8.7h41v8.7h-15.3v42.8H296.2z"/>
</g>
<g>
	<path class="st0" d="M-324.6-39.3v-140h52.8c9.3,0,16.4,0.4,21.3,1.3c6.9,1.1,12.6,3.3,17.3,6.5c4.6,3.2,8.4,7.7,11.2,13.5
		c2.8,5.8,4.2,12.2,4.2,19.1c0,11.9-3.8,22-11.4,30.2c-7.6,8.2-21.3,12.4-41,12.4h-35.9v56.9H-324.6z M-306.1-112.7h36.2
		c12,0,20.5-2.2,25.5-6.7c5-4.5,7.5-10.7,7.5-18.8c0-5.9-1.5-10.9-4.4-15c-3-4.2-6.9-6.9-11.7-8.3c-3.1-0.8-8.9-1.2-17.3-1.2h-35.8
		V-112.7z"/>
</g>
<g>
	<path class="st0" d="M198.2,21c11.9,0,21.5,9.6,21.5,21.5v196c0,11.9-9.6,21.5-21.5,21.5h-113c-11.9,0-21.5-9.6-21.5-21.5v-196
		c0-11.9,9.6-21.5,21.5-21.5H198.2 M198.2,16h-113c-14.6,0-26.5,11.9-26.5,26.5v196c0,14.6,11.9,26.5,26.5,26.5h113
		c14.6,0,26.5-11.9,26.5-26.5v-196C224.7,27.9,212.8,16,198.2,16L198.2,16z"/>
</g>
<polygon class="st0" points="110.3,60.5 100,60.3 100,91.5 87.5,91.5 87.5,60 76.8,59.8 94.2,31.2 "/>
<polygon class="st0" points="165.8,62.7 176.1,62.9 176.1,31.7 188.6,31.7 188.6,63.2 199.3,63.4 181.9,92 "/>
</svg>
