<?xml version="1.0" encoding="utf-8"?>
<!-- Generator: Adobe Illustrator 22.1.0, SVG Export Plug-In . SVG Version: 6.00 Build 0)  -->
<svg version="1.1" id="Layer_1" xmlns="http://www.w3.org/2000/svg" xmlns:xlink="http://www.w3.org/1999/xlink" x="0px" y="0px"
	 viewBox="0 0 283.5 283.5" style="enable-background:new 0 0 283.5 283.5;" xml:space="preserve">
<style type="text/css">
	.st0{fill:#FFFFFF;}
	.st1{font-family:'Arial-BoldMT';}
	.st2{font-size:86.0918px;}
	.st3{fill:#125296;}
	.st4{fill:#8496B9;}
</style>
<text transform="matrix(1 0 0 1 207 261.0889)" class="st0 st1 st2">T</text>
<g>
	<rect x="4.7" y="4.7" class="st3" width="274.7" height="274.7"/>
	<path class="st4" d="M274.3,9.7v264.7H9.7V9.7H274.3 M284.3-0.3H-0.3v284.7h284.7V-0.3L284.3-0.3z"/>
</g>
<g>
	<path class="st0" d="M98.3,159.6c-1.5-21.7-3-43-4.5-64.2c-0.8-11.4-1.5-22.8-2.5-34.1c-0.3-3.4-1.9-6.7-2.1-10
		c-0.6-9.8,6.2-18.6,15.4-20.6c8.8-1.9,18.3,3.2,22,11.8c3.8,8.8,0.7,19.4-7.4,24.6c-2.4,1.5-5.1,2.5-8.3,4
		c0.7,12.4,1.3,25.4,2,38.7c12.6,0,24.8-0.1,36.9,0c4.1,0,9.6-1,12,1.2c2.1,1.9,0.7,7.6,0.8,11.6c0,1.9,0,3.8,0,6.1
		c-16.1,0-31.6,0-47.8,0c0.3,4.2,0.6,8,0.9,11.9c8.8,0,17.3,0,25.9,0c11.9,0,23.7,0,35.6-0.3c3.4-0.1,5,1.2,6.2,4.2
		c8.6,20.8,17.4,41.4,26.3,62.5c7.1-2.6,13.9-5.1,21.3-7.8c2,4.8,3.9,9.5,6,14.8c-12.8,5.2-25.3,10.3-38.5,15.6
		c-9.8-23.5-19.5-46.8-29.3-70.3C145.9,159.6,122.5,159.6,98.3,159.6z"/>
	<path class="st0" d="M88.5,113.4c0.6,7,1.3,13.4,1.6,19.8c0.1,1.2-1,2.8-2,3.6c-14.9,11.6-22.4,26.9-21.7,45.6
		c1,28.5,24.7,51.2,52.7,50.5c22-0.5,44.8-17.1,49.6-44.2c0.1-0.4,0.2-0.9,0.5-2.3c1.1,2,1.9,3.3,2.5,4.7c3,6.4,6.1,12.7,8.9,19.2
		c0.6,1.5,0.8,3.9,0,5.2C165.5,241.2,143,255,113.1,253c-28.2-1.9-48.4-17.3-60.2-42.9c-15.7-34.2-1.9-75.8,30.9-94.3
		C85.2,115,86.6,114.3,88.5,113.4z"/>
</g>
<g>
	<path class="st0" d="M74.9-138l-12.3-51.5h10.7l7.8,35.4l9.4-35.4h12.4l9,36l7.9-36h10.5L117.7-138h-11l-10.3-38.5L86.2-138H74.9z"
		/>
	<path class="st0" d="M168.5-156.9l10.1,3.2c-1.5,5.6-4.1,9.8-7.7,12.5c-3.6,2.7-8.2,4.1-13.7,4.1c-6.8,0-12.5-2.3-16.9-7
		c-4.4-4.7-6.6-11.1-6.6-19.2c0-8.6,2.2-15.2,6.6-20c4.4-4.7,10.3-7.1,17.5-7.1c6.3,0,11.4,1.9,15.4,5.6c2.3,2.2,4.1,5.4,5.3,9.5
		l-10.3,2.5c-0.6-2.7-1.9-4.8-3.8-6.3s-4.3-2.3-7-2.3c-3.8,0-6.9,1.4-9.3,4.1s-3.6,7.2-3.6,13.3c0,6.5,1.2,11.2,3.5,13.9
		c2.3,2.8,5.4,4.1,9.1,4.1c2.8,0,5.1-0.9,7.1-2.6S167.6-153.2,168.5-156.9z"/>
</g>
<g>
	<path class="st0" d="M296.2-132v-42.8h-15.3v-8.7h41v8.7h-15.3v42.8H296.2z"/>
</g>
<g>
	<path class="st0" d="M-125.6,133.7v-140h52.8c9.3,0,16.4,0.4,21.3,1.3c6.9,1.1,12.6,3.3,17.3,6.5c4.6,3.2,8.4,7.7,11.2,13.5
		c2.8,5.8,4.2,12.2,4.2,19.1c0,11.9-3.8,22-11.4,30.2c-7.6,8.2-21.3,12.4-41,12.4h-35.9v56.9H-125.6z M-107.1,60.3h36.2
		c12,0,20.5-2.2,25.5-6.7c5-4.5,7.5-10.7,7.5-18.8c0-5.9-1.5-10.9-4.4-15c-3-4.2-6.9-6.9-11.7-8.3c-3.1-0.8-8.9-1.2-17.3-1.2h-35.8
		V60.3z"/>
</g>
<g>
	<g>
		<path class="st0" d="M525.2-18c11.9,0,21.5,9.6,21.5,21.5v196c0,11.9-9.6,21.5-21.5,21.5h-113c-11.9,0-21.5-9.6-21.5-21.5V3.5
			c0-11.9,9.6-21.5,21.5-21.5H525.2 M525.2-23h-113c-14.6,0-26.5,11.9-26.5,26.5v196c0,14.6,11.9,26.5,26.5,26.5h113
			c14.6,0,26.5-11.9,26.5-26.5V3.5C551.7-11.1,539.8-23,525.2-23L525.2-23z"/>
	</g>
	<polygon class="st0" points="437.3,21.5 427,21.3 427,52.5 414.5,52.5 414.5,21 403.8,20.8 421.2,-7.8 	"/>
	<polygon class="st0" points="492.8,23.7 503.1,23.9 503.1,-7.3 515.6,-7.3 515.6,24.2 526.3,24.4 508.9,53 	"/>
</g>
</svg>
