<?xml version="1.0" encoding="utf-8"?>
<!-- Generator: Adobe Illustrator 22.1.0, SVG Export Plug-In . SVG Version: 6.00 Build 0)  -->
<svg version="1.1" id="Layer_1" xmlns="http://www.w3.org/2000/svg" xmlns:xlink="http://www.w3.org/1999/xlink" x="0px" y="0px"
	 viewBox="0 0 283.5 283.5" style="enable-background:new 0 0 283.5 283.5;" xml:space="preserve">
<style type="text/css">
	.st0{fill:#FFFFFF;}
	.st1{fill:#125296;}
	.st2{font-family:'Arial-BoldMT';}
	.st3{font-size:86.0918px;}
	.st4{fill:#8496B9;}
</style>
<g>
	<path class="st0" d="M283.5,284.5c-94.7,0-189.3,0-284,0c0-94.7,0-189.3,0-284c94.7,0,189.3,0,284,0
		C283.5,95.2,283.5,189.8,283.5,284.5z M123.3,203.7c-22.9,23.2-45,45.4-67,67.7c0.4,0.7,0.9,1.4,1.3,2.2c3.1,0,6.1,0,9.2,0
		c62.1,0,124.1,0,186.2,0c18,0,21.4-3.5,21.5-21.4c0-63.9,0-127.9,0-191.8c0-3-0.3-5.9-0.6-11.1c-15.3,16.4-29.3,31.3-41.5,44.4
		c-11.3-16.5-22-32.3-33.2-48.6c10.1-10.6,21.2-22.2,33.8-35.5c-5.5,0-8.3,0-11.1,0c-63.3,0-126.6,0-189.9,0
		c-18,0-21.4,3.5-21.5,21.4c0,64.6,0,129.1,0,193.7c0,2.9,0.3,5.9,0.6,10.8c22-22.2,42.6-43,63.5-64.1c14.5,9.5,28.1,18.4,41.7,27.3
		C118.3,199.9,120.2,201.4,123.3,203.7z"/>
	<path class="st1" d="M123.3,203.7c-3.1-2.3-5-3.8-7.1-5.2c-13.6-8.9-27.1-17.8-41.7-27.3C53.6,192.3,33,213.1,11,235.3
		c-0.3-4.9-0.6-7.8-0.6-10.8c0-64.6,0-129.1,0-193.7c0-17.9,3.5-21.4,21.5-21.4c63.3,0,126.6,0,189.9,0c2.8,0,5.6,0,11.1,0
		c-12.6,13.3-23.7,24.8-33.8,35.5c11.2,16.4,22,32.1,33.2,48.6c12.3-13.1,26.2-28,41.5-44.4c0.3,5.2,0.6,8.1,0.6,11.1
		c0,63.9,0,127.9,0,191.8c0,17.9-3.5,21.4-21.5,21.4c-62.1,0-124.1,0-186.2,0c-3.1,0-6.1,0-9.2,0c-0.4-0.7-0.9-1.4-1.3-2.2
		C78.3,249.1,100.4,226.9,123.3,203.7z M97.8,242.2c19,19.4,47.8,13.9,59.7-11.8c10.9-23.5,26.4-43,44-61.5
		c22.6-23.9,26.4-63,9.5-91.6c-16.9-28.5-53.4-44.3-84.9-36.6C93.9,48.6,77,71.1,68.6,101.5c-3.2,11.6-1.2,13.5,11.2,11
		c1.7-5.7,3.1-11.5,5.2-17.1c12.2-32.6,41.1-48.7,72.8-40.7c50.3,12.8,66.6,70.3,30.6,107.8c-15.9,16.6-30.7,33.9-40.1,55.2
		c-10,22.4-19.7,26.3-42.7,16.5C103.3,236.5,100.7,239.2,97.8,242.2z M180.9,155c16.6-19.3,20.1-43.7,9.5-62.6
		C179.4,72.6,156.3,62,133,66c-17.7,3.1-34.9,19-37.7,35.3c3.5,1.3,7.1,2.7,10.6,4c17.3-26,36.4-32.8,57.5-21
		c21.6,12.1,24,30.4,7.9,63.4C174.3,150,177.5,152.4,180.9,155z"/>
	<path class="st0" d="M97.8,242.2c3-3,5.6-5.6,7.9-8c23,9.8,32.8,5.9,42.7-16.5c9.4-21.3,24.2-38.6,40.1-55.2
		c35.9-37.5,19.6-95-30.6-107.8c-31.7-8-60.6,8.1-72.8,40.7c-2.1,5.5-3.4,11.3-5.2,17.1c-12.4,2.5-14.4,0.6-11.2-11
		C77,71.1,93.9,48.6,126,40.7c31.6-7.8,68,8,84.9,36.6s13.1,67.8-9.5,91.6c-17.5,18.5-33,38-44,61.5
		C145.5,256,116.8,261.6,97.8,242.2z"/>
	<path class="st0" d="M180.9,155c-3.5-2.6-6.6-5-9.6-7.3c16.1-33.1,13.6-51.3-7.9-63.4c-21-11.8-40.2-5-57.5,21
		c-3.4-1.3-7.1-2.7-10.6-4C98.1,85,115.3,69.1,133,66c23.3-4,46.4,6.6,57.5,26.4C201,111.3,197.6,135.7,180.9,155z"/>
</g>
<text transform="matrix(1 0 0 1 207 261.0889)" class="st0 st2 st3">T</text>
<g>
	<path class="st4" d="M274.5,9.5v266H8.5V9.5H274.5 M283.5,0.5h-284v284h284V0.5L283.5,0.5z"/>
</g>
</svg>
