<?xml version="1.0" encoding="utf-8"?>
<!-- Generator: Adobe Illustrator 22.1.0, SVG Export Plug-In . SVG Version: 6.00 Build 0)  -->
<svg version="1.1" id="Layer_1" xmlns="http://www.w3.org/2000/svg" xmlns:xlink="http://www.w3.org/1999/xlink" x="0px" y="0px"
	 viewBox="0 0 283.5 283.5" style="enable-background:new 0 0 283.5 283.5;" xml:space="preserve">
<style type="text/css">
	.st0{fill:#FFFFFF;}
	.st1{font-family:'Arial-BoldMT';}
	.st2{font-size:86.0918px;}
	.st3{fill:#125296;}
	.st4{fill:#8496B9;}
</style>
<text transform="matrix(1 0 0 1 207 261.0889)" class="st0 st1 st2">T</text>
<g>
	<rect x="4.7" y="4.7" class="st3" width="274.7" height="274.7"/>
	<path class="st4" d="M274.3,9.7v264.7H9.7V9.7H274.3 M284.3-0.3H-0.3v284.7h284.7V-0.3L284.3-0.3z"/>
</g>
<g>
	<path class="st0" d="M104.8,137.1c-1.3-18.5-2.5-36.5-3.8-54.6c-0.7-9.7-1.3-19.3-2.1-29c-0.3-2.9-1.6-5.7-1.8-8.5
		c-0.5-8.3,5.3-15.8,13.1-17.5c7.5-1.6,15.5,2.7,18.7,10.1c3.2,7.5,0.6,16.5-6.3,20.9c-2,1.3-4.3,2.1-7,3.4
		c0.6,10.6,1.1,21.6,1.7,32.9c10.7,0,21-0.1,31.3,0c3.5,0,8.2-0.8,10.2,1c1.8,1.6,0.6,6.5,0.7,9.9c0,1.6,0,3.2,0,5.2
		c-13.7,0-26.9,0-40.6,0c0.3,3.6,0.5,6.8,0.8,10.2c7.5,0,14.7,0,22,0c10.1,0,20.2,0,30.3-0.2c2.9-0.1,4.2,1,5.3,3.6
		c7.3,17.6,14.8,35.2,22.4,53.1c6-2.2,11.8-4.3,18.1-6.6c1.7,4.1,3.3,8.1,5.1,12.5c-10.9,4.4-21.5,8.7-32.7,13.3
		c-8.3-20-16.6-39.7-24.9-59.7C145.3,137.1,125.4,137.1,104.8,137.1z"/>
	<path class="st0" d="M96.5,97.9c0.5,5.9,1.1,11.4,1.4,16.8c0.1,1-0.8,2.4-1.7,3.1c-12.7,9.8-19,22.8-18.5,38.8
		c0.9,24.3,21,43.5,44.8,42.9c18.7-0.5,38-14.5,42.1-37.6c0.1-0.4,0.2-0.7,0.5-2c0.9,1.7,1.6,2.8,2.2,4c2.6,5.4,5.2,10.8,7.6,16.3
		c0.5,1.3,0.6,3.3,0,4.4c-12.9,21.9-32,33.7-57.5,32c-24-1.6-41.1-14.7-51.2-36.5c-13.4-29.1-1.6-64.4,26.3-80.2
		C93.7,99.3,94.9,98.7,96.5,97.9z"/>
</g>
<g>
	<path class="st0" d="M32.9-92l-12.3-51.5h10.7l7.8,35.4l9.4-35.4h12.4l9,36l7.9-36h10.5L75.7-92h-11l-10.3-38.5L44.2-92H32.9z"/>
	<path class="st0" d="M126.5-110.9l10.1,3.2c-1.5,5.6-4.1,9.8-7.7,12.5c-3.6,2.7-8.2,4.1-13.7,4.1c-6.8,0-12.5-2.3-16.9-7
		c-4.4-4.7-6.6-11.1-6.6-19.2c0-8.6,2.2-15.2,6.6-20c4.4-4.7,10.3-7.1,17.5-7.1c6.3,0,11.4,1.9,15.4,5.6c2.3,2.2,4.1,5.4,5.3,9.5
		l-10.3,2.5c-0.6-2.7-1.9-4.8-3.8-6.3s-4.3-2.3-7-2.3c-3.8,0-6.9,1.4-9.3,4.1s-3.6,7.2-3.6,13.3c0,6.5,1.2,11.2,3.5,13.9
		c2.3,2.8,5.4,4.1,9.1,4.1c2.8,0,5.1-0.9,7.1-2.6S125.6-107.2,126.5-110.9z"/>
</g>
<g>
	<path class="st0" d="M296.2-132v-42.8h-15.3v-8.7h41v8.7h-15.3v42.8H296.2z"/>
</g>
<g>
	<path class="st0" d="M-125.6,133.7v-140h52.8c9.3,0,16.4,0.4,21.3,1.3c6.9,1.1,12.6,3.3,17.3,6.5c4.6,3.2,8.4,7.7,11.2,13.5
		c2.8,5.8,4.2,12.2,4.2,19.1c0,11.9-3.8,22-11.4,30.2c-7.6,8.2-21.3,12.4-41,12.4h-35.9v56.9H-125.6z M-107.1,60.3h36.2
		c12,0,20.5-2.2,25.5-6.7c5-4.5,7.5-10.7,7.5-18.8c0-5.9-1.5-10.9-4.4-15c-3-4.2-6.9-6.9-11.7-8.3c-3.1-0.8-8.9-1.2-17.3-1.2h-35.8
		V60.3z"/>
</g>
<g>
	<g>
		<path class="st0" d="M525.2-18c11.9,0,21.5,9.6,21.5,21.5v196c0,11.9-9.6,21.5-21.5,21.5h-113c-11.9,0-21.5-9.6-21.5-21.5V3.5
			c0-11.9,9.6-21.5,21.5-21.5H525.2 M525.2-23h-113c-14.6,0-26.5,11.9-26.5,26.5v196c0,14.6,11.9,26.5,26.5,26.5h113
			c14.6,0,26.5-11.9,26.5-26.5V3.5C551.7-11.1,539.8-23,525.2-23L525.2-23z"/>
	</g>
	<polygon class="st0" points="437.3,21.5 427,21.3 427,52.5 414.5,52.5 414.5,21 403.8,20.8 421.2,-7.8 	"/>
	<polygon class="st0" points="492.8,23.7 503.1,23.9 503.1,-7.3 515.6,-7.3 515.6,24.2 526.3,24.4 508.9,53 	"/>
</g>
<polygon class="st0" points="14,268 266,268 266,186 "/>
</svg>
